<svg width="49" height="43" viewBox="0 0 49 43" fill="none" xmlns="http://www.w3.org/2000/svg">
<path d="M12.25 0L36.75 2.73746e-07L49 21.5L36.75 43H12.25L0 21.5L12.25 0Z" fill="white"/>
<path fill-rule="evenodd" clip-rule="evenodd" d="M13.9821 3.03993L3.4641 21.5L13.982 39.9601H35.0179L45.5359 21.5L35.0179 3.03993H13.9821ZM36.75 2.73746e-07L12.25 0L0 21.5L12.25 43H36.75L49 21.5L36.75 2.73746e-07Z" fill="#C97D00"/>
<path d="M22.0928 26.7517C22.0928 25.4059 22.2598 24.3332 22.5937 23.5338C22.9277 22.7344 23.5854 21.859 24.567 20.9078C25.5587 19.9465 26.1861 19.2634 26.4492 18.8587C26.8539 18.2414 27.0563 17.5735 27.0563 16.8551C27.0563 15.9038 26.8185 15.1803 26.3429 14.6845C25.8774 14.1785 25.1893 13.9255 24.2786 13.9255C23.4083 13.9255 22.705 14.1734 22.1687 14.6693C21.6425 15.155 21.3794 15.8178 21.3794 16.6577H17.6909C17.7112 14.8666 18.3183 13.4499 19.5124 12.4076C20.7166 11.3653 22.3053 10.8442 24.2786 10.8442C26.3126 10.8442 27.8962 11.3603 29.0296 12.3924C30.1731 13.4246 30.7448 14.8666 30.7448 16.7184C30.7448 18.3679 29.9757 19.992 28.4376 21.5909L26.5706 23.4275C25.9027 24.1865 25.5587 25.2945 25.5384 26.7517H22.0928ZM21.8348 31.4724C21.8348 30.8753 22.022 30.3947 22.3964 30.0304C22.7708 29.656 23.2768 29.4688 23.9143 29.4688C24.5619 29.4688 25.0729 29.661 25.4474 30.0456C25.8218 30.42 26.009 30.8956 26.009 31.4724C26.009 32.0289 25.8268 32.4944 25.4625 32.8688C25.0982 33.2433 24.5822 33.4305 23.9143 33.4305C23.2464 33.4305 22.7303 33.2433 22.366 32.8688C22.0119 32.4944 21.8348 32.0289 21.8348 31.4724Z" fill="#C97D00"/>
</svg>
