<svg width="35" height="28" viewBox="0 0 35 28" fill="none" xmlns="http://www.w3.org/2000/svg">
<path d="M30.7387 23.496H33.2045L34.4374 25.6316L33.2045 27.7671H30.7387L29.5058 25.6316L30.7387 23.496Z" fill="#FF6258"/>
<path d="M24.5744 23.4123H27.0402L28.2731 25.5478L27.0402 27.6833H24.5744L23.3415 25.5478L24.5744 23.4123Z" fill="#FF6258"/>
<path d="M0 8.37039L1.2329 6.23487H3.6987L4.9316 8.37039L3.6987 10.5059H1.2329L0 8.37039Z" fill="#FF6258"/>
<path d="M4.43848 2.86161L6.57392 1.62867L8.70937 2.86161V5.3275L6.57392 6.56044L4.43848 5.3275V2.86161Z" fill="#FF6258"/>
<path d="M11.2589 0.232941L13.7247 0.232941L14.9576 2.36846L13.7247 4.50398L11.2589 4.50398L10.026 2.36846L11.2589 0.232941Z" fill="#FF6258"/>
<path d="M18.4934 6.64428L16.358 5.41134V2.94546L18.4934 1.71251L20.6289 2.94546V5.41134L18.4934 6.64428Z" fill="#FF6258"/>
<path d="M21.3686 10.6687L20.1357 8.53319L21.3686 6.39767L23.8344 6.39768L25.0673 8.53319L23.8344 10.6687H21.3686Z" fill="#FF6258"/>
<path d="M21.9457 15.1911V12.7252L24.0812 11.4923L26.2166 12.7252V15.1911L24.0812 16.424L21.9457 15.1911Z" fill="#FF6258"/>
<path d="M20.2195 19.7134L21.4524 17.5779H23.9182L25.1511 19.7134L23.9182 21.8489H21.4524L20.2195 19.7134Z" fill="#FF6258"/>
<path d="M16.2743 22.8353L18.4097 21.6024L20.5451 22.8353V25.3012L18.4097 26.5342L16.2743 25.3012V22.8353Z" fill="#FF6258"/>
<path d="M11.2589 23.4123H13.7247L14.9576 25.5478L13.7247 27.6833L11.2589 27.6833L10.026 25.5478L11.2589 23.4123Z" fill="#FF6258"/>
</svg>
