<svg width="49" height="43" viewBox="0 0 49 43" fill="none" xmlns="http://www.w3.org/2000/svg">
<path d="M12.25 0L36.75 1.55525e-06L49 21.5L36.75 43H12.25L0 21.5L12.25 0Z" fill="white"/>
<path fill-rule="evenodd" clip-rule="evenodd" d="M13.9821 3.03993L3.4641 21.5L13.9821 39.9601L35.018 39.9601L45.5359 21.5L35.0179 3.03993L13.9821 3.03993ZM36.75 1.55525e-06L12.25 0L0 21.5L12.25 43H36.75L49 21.5L36.75 1.55525e-06Z" fill="#C97D00"/>
<path d="M36.882 15.1794L36.684 14.1762C36.618 13.8641 36.563 13.5854 36.519 13.3402C36.453 13.1173 36.398 12.9278 36.354 12.7717C36.31 12.6157 36.266 12.4485 36.222 12.2701C36.156 12.1141 36.101 11.9469 36.057 11.7686L35.793 10.7988C35.749 10.6205 35.705 10.431 35.661 10.2304C35.595 10.0297 35.54 9.82909 35.496 9.62845C35.012 9.27177 34.561 8.94852 34.143 8.65872C33.703 8.3912 33.285 8.15713 32.889 7.95649C32.515 7.75586 32.207 7.58866 31.965 7.45491C31.723 7.32115 31.558 7.22083 31.47 7.15395L30.414 6.55205C30.238 6.59663 30.084 6.64122 29.952 6.6858C29.798 6.75268 29.644 6.79727 29.49 6.81956L28.764 7.0202C28.676 7.04249 28.555 7.07593 28.401 7.12051C28.225 7.1651 28.005 7.20969 27.741 7.25427C27.477 7.29886 27.158 7.36573 26.784 7.45491C26.388 7.54408 25.926 7.64439 25.398 7.75586C25.2 8.11254 25.013 8.45808 24.837 8.79247C24.639 9.12687 24.463 9.43896 24.309 9.72877L23.913 10.4644C23.737 10.7988 23.583 11.0775 23.451 11.3004C23.297 11.5233 23.187 11.6794 23.121 11.7686C23.011 11.9023 22.89 12.0918 22.758 12.337L22.296 13.1396C21.856 13.9198 21.515 14.5552 21.273 15.0456C21.009 15.5583 20.833 15.9262 20.745 16.1491C20.657 16.3943 20.536 16.6618 20.382 16.9516C20.206 17.2637 19.997 17.6316 19.755 18.0551L18.171 20.7303L17.412 22.0678C17.126 22.5583 16.895 23.0599 16.719 23.5726C16.543 24.1076 16.411 24.5758 16.323 24.977C16.213 25.3783 16.158 25.6347 16.158 25.7461L16.092 27.2175C16.092 27.2175 16.092 27.4627 16.092 27.9531C16.07 28.4436 16.048 29.0455 16.026 29.7588C15.982 30.4945 15.949 31.2079 15.927 31.899C15.905 32.6123 15.894 33.2031 15.894 33.6712C15.872 34.1394 15.861 34.3512 15.861 34.3066V34.9754C15.861 35.5996 15.916 36.012 16.026 36.2126C16.114 36.4132 16.268 36.5136 16.488 36.5136C16.62 36.5136 16.763 36.4801 16.917 36.4132C17.071 36.3687 17.225 36.3018 17.379 36.2126L18.204 35.711L20.019 34.7078C20.261 34.5964 20.514 34.4515 20.778 34.2731L22.065 33.5375C22.153 33.4929 22.241 33.4483 22.329 33.4037C22.417 33.3591 22.494 33.3145 22.56 33.27C22.604 33.2477 22.681 33.2031 22.791 33.1362C22.879 33.0916 22.989 33.0359 23.121 32.969L25.002 32.0327C26.256 31.4085 26.96 30.8958 27.114 30.4945C27.18 30.3162 27.323 30.0486 27.543 29.692C27.741 29.3353 28.005 28.9006 28.335 28.3878L29.094 27.184C29.226 26.9611 29.336 26.7828 29.424 26.649C29.512 26.5375 29.578 26.4595 29.622 26.4149C29.666 26.348 29.721 26.27 29.787 26.1808C29.831 26.114 29.886 26.0248 29.952 25.9133L32.229 22.2685C32.317 22.157 32.394 22.0455 32.46 21.9341C32.504 21.8449 32.548 21.778 32.592 21.7334L34.935 18.1889C35.221 17.743 35.529 17.2637 35.859 16.751C36.167 16.2606 36.508 15.7367 36.882 15.1794ZM25.464 30.3607C25.2 30.5614 24.782 30.8066 24.21 31.0964L22.098 32.1999L21.768 32.3671C21.724 32.4117 21.57 32.512 21.306 32.6681C21.042 32.8464 20.668 33.0805 20.184 33.3703C19.216 33.9499 18.611 34.2397 18.369 34.2397C18.105 34.2397 17.83 34.1394 17.544 33.9387C17.236 33.7381 17.049 33.5709 16.983 33.4372C16.895 33.3257 16.851 33.0582 16.851 32.6346C16.851 32.3225 16.873 31.9993 16.917 31.6649C16.939 31.3528 16.972 31.0407 17.016 30.7286C17.038 30.4165 17.071 30.0375 17.115 29.5916C17.137 29.1681 17.148 28.6776 17.148 28.1203V27.3512C17.148 27.1952 17.159 26.9945 17.181 26.7493C17.181 26.5264 17.192 26.3258 17.214 26.1474L17.28 25.4117C17.83 26.1251 18.116 26.5821 18.138 26.7828C18.16 26.8942 18.182 27.0057 18.204 27.1171C18.204 27.2286 18.204 27.3624 18.204 27.5184V28.02C18.204 28.1092 18.204 28.1872 18.204 28.2541C18.204 28.321 18.193 28.399 18.171 28.4882L18.138 28.9563C18.27 28.6665 18.424 28.399 18.6 28.1538C18.754 27.9085 18.908 27.7859 19.062 27.7859C19.15 27.7859 19.238 27.8305 19.326 27.9197C19.414 28.0089 19.458 28.1761 19.458 28.4213C19.458 28.7111 19.403 29.0901 19.293 29.5582C19.161 30.0486 18.996 30.606 18.798 31.2302C19.018 30.8958 19.293 30.5391 19.623 30.1601C19.931 29.7811 20.14 29.5582 20.25 29.4913L20.679 29.2238C20.833 29.1346 21.02 29.0901 21.24 29.0901C21.438 29.0901 21.647 29.1569 21.867 29.2907C22.087 29.4467 22.197 29.6585 22.197 29.926C22.197 30.0821 22.153 30.2381 22.065 30.3942L21.834 31.0295C21.922 30.9404 22.032 30.8512 22.164 30.762C22.274 30.6951 22.406 30.6394 22.56 30.5948C22.692 30.5502 22.824 30.4834 22.956 30.3942C23.066 30.3273 23.176 30.2604 23.286 30.1936C23.506 30.0598 23.792 29.9929 24.144 29.9929C24.364 29.9929 24.595 30.0264 24.837 30.0932C25.079 30.1824 25.288 30.2716 25.464 30.3607ZM26.124 13.5743L25.992 13.9087L25.53 14.7112C25.442 14.8673 25.376 15.0122 25.332 15.1459C25.266 15.302 25.222 15.4246 25.2 15.5137C25.156 15.7367 25.024 16.0376 24.804 16.4166C24.584 16.8179 24.32 17.208 24.012 17.587C23.858 17.7653 23.726 17.9437 23.616 18.122C23.484 18.3226 23.363 18.5233 23.253 18.7239C23.011 19.1252 22.802 19.4373 22.626 19.6602L22.362 19.9946C22.318 20.0392 22.285 20.0838 22.263 20.1284C22.219 20.1729 22.186 20.2175 22.164 20.2621L21.669 21.165L21.405 21.6666C21.361 21.7557 21.328 21.8226 21.306 21.8672C21.284 21.9341 21.262 21.9787 21.24 22.001L20.547 22.9707L20.085 23.5726C19.865 23.8624 19.645 24.1856 19.425 24.5423L19.128 25.0439C19.084 25.1554 19.04 25.2668 18.996 25.3783C18.93 25.4898 18.864 25.5901 18.798 25.6793L17.61 23.7398C17.698 23.5837 17.786 23.4165 17.874 23.2382C17.94 23.0822 18.017 22.9261 18.105 22.7701L18.534 21.9675C18.644 21.7446 18.754 21.5328 18.864 21.3322C18.974 21.1538 19.084 20.9755 19.194 20.7971L20.085 19.493C20.173 19.3815 20.239 19.2812 20.283 19.1921C20.327 19.1029 20.371 19.036 20.415 18.9914C20.437 18.9691 20.47 18.9023 20.514 18.7908C20.558 18.7016 20.624 18.579 20.712 18.423L21.273 17.4198C21.493 17.0408 21.669 16.7176 21.801 16.45C21.933 16.1825 22.043 15.9708 22.131 15.8147C22.219 15.6587 22.329 15.4692 22.461 15.2462C22.571 15.0456 22.703 14.7892 22.857 14.4771L23.352 13.5074L23.946 12.4708C24.166 12.0472 24.408 11.6014 24.672 11.1332C24.914 10.6874 25.178 10.2081 25.464 9.69533C25.464 10.0743 25.486 10.3976 25.53 10.6651C25.574 10.9326 25.618 11.1555 25.662 11.3339C25.706 11.5122 25.75 11.6571 25.794 11.7686C25.838 11.88 25.86 11.958 25.86 12.0026L25.992 12.6714C26.014 12.8275 26.036 12.9724 26.058 13.1061C26.058 13.2622 26.08 13.4182 26.124 13.5743ZM30.282 16.3163C30.238 16.4055 30.194 16.4835 30.15 16.5504C30.106 16.6395 30.073 16.7176 30.051 16.7844L29.787 17.2191L29.259 18.0217C28.951 18.4898 28.709 18.9357 28.533 19.3593C28.467 19.5376 28.324 19.8274 28.104 20.2287C27.862 20.6522 27.532 21.1873 27.114 21.8338L25.662 24.1411C25.618 24.2302 25.574 24.3194 25.53 24.4086C25.464 24.4977 25.398 24.6092 25.332 24.743L24.441 26.4484C24.375 26.5821 24.309 26.6936 24.243 26.7828C24.177 26.8942 24.122 26.9945 24.078 27.0837L23.748 27.6187C23.682 27.7302 23.572 27.9085 23.418 28.1538C23.242 28.4213 23.11 28.6219 23.022 28.7557C22.78 28.7111 22.56 28.6553 22.362 28.5885C22.142 28.5439 21.922 28.4882 21.702 28.4213C21.306 28.2652 21.075 28.1538 21.009 28.0869L20.382 27.485L20.019 27.1506C19.865 26.9945 19.744 26.8831 19.656 26.8162L19.887 26.4149C19.909 26.3926 19.931 26.3592 19.953 26.3146C19.975 26.2923 19.986 26.2589 19.986 26.2143C19.986 26.1697 20.041 26.0582 20.151 25.8799L20.481 25.3114L20.844 24.7095C21.328 23.9293 21.691 23.2716 21.933 22.7366C22.175 22.2016 22.34 21.8895 22.428 21.8003L22.824 21.3656C22.934 21.2541 23.033 21.1315 23.121 20.9978C23.209 20.8863 23.319 20.6968 23.451 20.4293L24.045 19.1921L24.276 18.7239C24.298 18.6347 24.386 18.4898 24.54 18.2892C24.672 18.1109 24.826 17.9214 25.002 17.7207L25.464 17.1857C25.75 16.8736 25.937 16.5727 26.025 16.2829C26.091 16.1491 26.168 16.0153 26.256 15.8816C26.322 15.7478 26.388 15.6141 26.454 15.4803L26.685 15.0456C26.751 14.9564 26.817 14.8561 26.883 14.7446C26.927 14.6555 26.982 14.5552 27.048 14.4437L27.345 14.5775C27.367 14.5997 27.4 14.6109 27.444 14.6109C27.488 14.6332 27.532 14.6555 27.576 14.6778L27.774 14.7781C27.862 14.8004 27.972 14.9007 28.104 15.079C28.258 15.2797 28.478 15.4469 28.764 15.5806L29.721 16.0488C29.809 16.0934 29.908 16.1379 30.018 16.1825C30.106 16.2271 30.194 16.2717 30.282 16.3163ZM34.836 15.9819C34.77 16.0934 34.704 16.2048 34.638 16.3163C34.572 16.45 34.495 16.595 34.407 16.751C34.341 16.8848 34.275 17.0074 34.209 17.1188C34.143 17.2303 34.099 17.3195 34.077 17.3863L33.846 17.8545C33.758 18.0105 33.604 18.2446 33.384 18.5567C33.164 18.8911 32.878 19.3035 32.526 19.794C32.152 20.2844 31.822 20.7191 31.536 21.0981C31.25 21.4994 31.008 21.856 30.81 22.1681L30.216 23.1379C30.106 23.2939 29.996 23.45 29.886 23.606C29.776 23.7844 29.677 23.9516 29.589 24.1076C29.479 24.286 29.391 24.4309 29.325 24.5423C29.237 24.6761 29.171 24.7653 29.127 24.8098L28.896 25.2111C28.874 25.2557 28.852 25.3114 28.83 25.3783C28.786 25.4452 28.742 25.5121 28.698 25.5789C28.654 25.6458 28.599 25.7238 28.533 25.813C28.467 25.9022 28.412 25.9914 28.368 26.0805L28.038 26.6824C27.95 26.7716 27.785 27.0503 27.543 27.5184C27.279 28.0089 26.828 28.6665 26.19 29.4913L24.21 29.0901L24.441 28.6219C24.463 28.5773 24.496 28.5216 24.54 28.4547C24.562 28.3878 24.595 28.321 24.639 28.2541L24.804 27.8862C24.826 27.7971 24.914 27.641 25.068 27.4181L25.893 25.9802C25.959 25.8688 26.025 25.7573 26.091 25.6458C26.135 25.5567 26.179 25.4563 26.223 25.3449C26.289 25.2334 26.366 25.0996 26.454 24.9436C26.542 24.7876 26.674 24.6204 26.85 24.442L27.213 24.0073C27.323 23.8513 27.4 23.7398 27.444 23.6729L27.807 22.9372C27.895 22.7366 27.961 22.5694 28.005 22.4357C28.027 22.3019 28.049 22.1904 28.071 22.1013C28.115 21.9006 28.28 21.6554 28.566 21.3656L28.896 20.9978C29.16 20.7303 29.347 20.3847 29.457 19.9612C29.545 19.5599 29.721 19.2255 29.985 18.958C30.249 18.6905 30.469 18.3449 30.645 17.9214C30.865 17.4532 31.184 16.9851 31.602 16.5169C31.712 16.4946 31.833 16.4723 31.965 16.45C32.075 16.4278 32.185 16.3943 32.295 16.3497C32.383 16.3274 32.482 16.3051 32.592 16.2829C32.68 16.2606 32.768 16.2383 32.856 16.216L33.252 16.1157C33.34 16.0934 33.472 16.0711 33.648 16.0488C33.824 16.0488 34 16.0376 34.176 16.0153L34.836 15.9819ZM35.43 14.5775C35.386 14.5775 35.298 14.5997 35.166 14.6443C35.034 14.6889 34.946 14.7224 34.902 14.7446L34.572 14.9118C34.418 14.9787 34.154 15.0345 33.78 15.079C33.384 15.1459 33.01 15.1905 32.658 15.2128L32.196 15.2462C31.998 15.2908 31.8 15.3243 31.602 15.3466C31.404 15.3911 31.294 15.4246 31.272 15.4469C31.228 15.4023 31.173 15.3688 31.107 15.3466C31.041 15.3243 30.975 15.2908 30.909 15.2462L30.645 15.1125C30.601 15.0902 30.557 15.0679 30.513 15.0456C30.469 15.0233 30.436 15.001 30.414 14.9787L29.787 14.5106C29.567 14.3545 29.38 14.2208 29.226 14.1093C29.05 13.9978 28.896 13.9198 28.764 13.8752C28.61 13.8306 28.478 13.7749 28.368 13.708C28.258 13.6412 28.17 13.5854 28.104 13.5408L27.807 13.3736L27.444 13.2064C27.4 13.1842 27.345 13.1619 27.279 13.1396C27.213 13.1173 27.136 13.0838 27.048 13.0392L26.85 11.5679L26.751 10.9995L26.619 10.0297C26.619 10.0074 26.597 9.81794 26.553 9.46126C26.487 9.12687 26.432 8.8705 26.388 8.69216C26.542 8.66986 26.707 8.63642 26.883 8.59184C27.037 8.56955 27.18 8.54725 27.312 8.52496L28.038 8.3912C28.236 8.36891 28.39 8.33547 28.5 8.29089C28.544 8.26859 28.676 8.23515 28.896 8.19057L29.457 8.02337L30.15 7.88962L30.744 8.15713C30.898 8.2463 31.041 8.31318 31.173 8.35776C31.283 8.42464 31.382 8.48037 31.47 8.52496C31.536 8.56955 31.613 8.61413 31.701 8.65872C31.767 8.72559 31.855 8.79247 31.965 8.85935L32.823 9.36094C32.889 9.38323 33.01 9.4724 33.186 9.62845C33.274 9.67304 33.384 9.72877 33.516 9.79565C33.648 9.88482 33.802 9.97399 33.978 10.0632L34.638 10.3641C34.77 10.8323 34.902 11.423 35.034 12.1364C35.144 12.8721 35.232 13.4294 35.298 13.8084L35.43 14.5775ZM32.856 12.3036C32.856 11.8131 32.702 11.3673 32.394 10.966C32.064 10.5648 31.657 10.2415 31.173 9.99628C30.689 9.77336 30.227 9.66189 29.787 9.66189C29.413 9.66189 29.105 9.77336 28.863 9.99628C28.599 10.2415 28.467 10.509 28.467 10.7988C28.467 11.2224 28.676 11.6237 29.094 12.0026C29.49 12.4039 29.952 12.7272 30.48 12.9724C31.008 13.2399 31.459 13.3736 31.833 13.3736C32.515 13.3736 32.856 13.017 32.856 12.3036Z" fill="#C97D00"/>
</svg>
