<svg width="49" height="43" viewBox="0 0 49 43" fill="none" xmlns="http://www.w3.org/2000/svg">
<path d="M12.25 0L36.75 2.73746e-07L49 21.5L36.75 43H12.25L0 21.5L12.25 0Z" fill="white"/>
<path fill-rule="evenodd" clip-rule="evenodd" d="M13.9821 3.03993L3.4641 21.5L13.982 39.9601H35.0179L45.5359 21.5L35.0179 3.03993H13.9821ZM36.75 2.73746e-07L12.25 0L0 21.5L12.25 43H36.75L49 21.5L36.75 2.73746e-07Z" fill="#C97D00"/>
<path d="M24.5325 8.99312L27.5634 17.6578H37.3717L29.4366 23.0129L32.4676 31.6776L24.5325 26.3225L16.5974 31.6776L19.6283 23.0129L11.6932 17.6578H21.5015L24.5325 8.99312Z" fill="#C97D00"/>
</svg>
