<svg width="85" height="77" viewBox="0 0 85 77" fill="none" xmlns="http://www.w3.org/2000/svg">
    <path d="M21.4835 2.13944L63.4058 2.13945L84.3669 38.4452L63.4058 74.7509L21.4835 74.7509L0.522425 38.4452L21.4835 2.13944Z" fill="white"/>
    <path fill-rule="evenodd" clip-rule="evenodd" d="M24.4473 7.27278L6.44989 38.4452L24.4473 69.6175L60.442 69.6175L78.4394 38.4452L60.442 7.27278L24.4473 7.27278ZM63.4058 2.13945L21.4835 2.13944L0.522425 38.4452L21.4835 74.7509L63.4058 74.7509L84.3669 38.4452L63.4058 2.13945Z" fill="#C97D00"/>
    <path d="M63.6311 27.7718L63.2923 26.0778C63.1794 25.5508 63.0853 25.0803 63.01 24.6662C62.8971 24.2897 62.803 23.9697 62.7277 23.7062C62.6524 23.4427 62.5771 23.1604 62.5018 22.8592C62.3889 22.5957 62.2948 22.3134 62.2195 22.0122L61.7677 20.3747C61.6924 20.0735 61.6172 19.7536 61.5419 19.4148C61.4289 19.076 61.3348 18.7372 61.2595 18.3984C60.4314 17.7961 59.6596 17.2502 58.9444 16.7608C58.1915 16.3091 57.4763 15.9138 56.7987 15.575C56.1587 15.2362 55.6317 14.9539 55.2176 14.728C54.8035 14.5022 54.5212 14.3328 54.3706 14.2198L52.5637 13.2034C52.2625 13.2787 51.999 13.354 51.7731 13.4293C51.5096 13.5422 51.2461 13.6175 50.9826 13.6552L49.7403 13.994C49.5898 14.0316 49.3827 14.0881 49.1192 14.1634C48.818 14.2387 48.4416 14.3139 47.9899 14.3892C47.5381 14.4645 46.9923 14.5775 46.3523 14.728C45.6747 14.8786 44.8842 15.048 43.9807 15.2362C43.6419 15.8385 43.322 16.422 43.0208 16.9867C42.682 17.5514 42.3808 18.0784 42.1173 18.5678L41.4397 19.81C41.1386 20.3747 40.8751 20.8453 40.6492 21.2217C40.3857 21.5981 40.1975 21.8617 40.0845 22.0122C39.8963 22.2381 39.6893 22.5581 39.4634 22.9722L38.6729 24.3274C37.92 25.6449 37.3365 26.7178 36.9224 27.546C36.4707 28.4118 36.1695 29.0329 36.0189 29.4094C35.8684 29.8235 35.6613 30.2752 35.3978 30.7646C35.0966 31.2916 34.739 31.9127 34.3249 32.628L31.6145 37.1453L30.3158 39.404C29.8264 40.2321 29.4312 41.0791 29.13 41.945C28.8288 42.8484 28.603 43.639 28.4524 44.3166C28.2642 44.9942 28.1701 45.4271 28.1701 45.6153L28.0571 48.0998C28.0571 48.0998 28.0571 48.5139 28.0571 49.3421C28.0195 50.1703 27.9818 51.1867 27.9442 52.3913C27.8689 53.6336 27.8124 54.8382 27.7748 56.0052C27.7372 57.2098 27.7183 58.2074 27.7183 58.9979C27.6807 59.7884 27.6619 60.1461 27.6619 60.0708V61.2001C27.6619 62.2541 27.756 62.9506 27.9442 63.2894C28.0948 63.6282 28.3583 63.7976 28.7347 63.7976C28.9606 63.7976 29.2053 63.7411 29.4688 63.6282C29.7323 63.5529 29.9958 63.4399 30.2593 63.2894L31.671 62.4424L34.7767 60.7484C35.1908 60.5601 35.6237 60.3155 36.0754 60.0143L38.2776 58.772C38.4282 58.6967 38.5788 58.6215 38.7293 58.5462C38.8799 58.4709 39.0117 58.3956 39.1246 58.3203C39.1999 58.2827 39.3316 58.2074 39.5199 58.0944C39.6704 58.0191 39.8587 57.925 40.0845 57.8121L43.3031 56.231C45.4489 55.177 46.6535 54.3112 46.917 53.6336C47.0299 53.3324 47.2746 52.8807 47.6511 52.2784C47.9899 51.6761 48.4416 50.942 49.0063 50.0762L50.305 48.0434C50.5309 47.6669 50.7191 47.3658 50.8697 47.1399C51.0202 46.9517 51.1332 46.8199 51.2085 46.7446C51.2838 46.6317 51.3779 46.4999 51.4908 46.3494C51.5661 46.2364 51.6602 46.0859 51.7731 45.8976L55.6693 39.7428C55.8199 39.5545 55.9517 39.3663 56.0646 39.1781C56.1399 39.0275 56.2152 38.9146 56.2905 38.8393L60.2996 32.8538C60.789 32.1009 61.316 31.2916 61.8807 30.4258C62.4077 29.5976 62.9912 28.7129 63.6311 27.7718ZM44.0937 53.4077C43.6419 53.7465 42.9267 54.1606 41.9479 54.65L38.3341 56.5134L37.7694 56.7957C37.6941 56.871 37.4306 57.0404 36.9789 57.3039C36.5271 57.6051 35.8872 58.0003 35.059 58.4897C33.4026 59.4685 32.3674 59.9578 31.9533 59.9578C31.5016 59.9578 31.031 59.7884 30.5417 59.4496C30.0146 59.1108 29.6947 58.8285 29.5817 58.6026C29.4312 58.4144 29.3559 57.9627 29.3559 57.2474C29.3559 56.7204 29.3935 56.1746 29.4688 55.6099C29.5064 55.0829 29.5629 54.5559 29.6382 54.0288C29.6758 53.5018 29.7323 52.8619 29.8076 52.109C29.8452 51.3937 29.8641 50.5655 29.8641 49.6244V48.3257C29.8641 48.0622 29.8829 47.7234 29.9205 47.3093C29.9205 46.9329 29.9394 46.5941 29.977 46.2929L30.0899 45.0506C31.031 46.2553 31.5204 47.027 31.5581 47.3658C31.5957 47.554 31.6334 47.7422 31.671 47.9304C31.671 48.1187 31.671 48.3445 31.671 48.608V49.455C31.671 49.6056 31.671 49.7374 31.671 49.8503C31.671 49.9632 31.6522 50.095 31.6145 50.2456L31.5581 51.0361C31.7839 50.5467 32.0474 50.095 32.3486 49.6809C32.6121 49.2668 32.8756 49.0598 33.1391 49.0598C33.2897 49.0598 33.4403 49.1351 33.5909 49.2856C33.7414 49.4362 33.8167 49.7185 33.8167 50.1326C33.8167 50.622 33.7226 51.262 33.5344 52.0525C33.3085 52.8807 33.0262 53.8218 32.6874 54.8758C33.0638 54.3112 33.5344 53.7089 34.0991 53.0689C34.6261 52.4289 34.9837 52.0525 35.1719 51.9396L35.906 51.4878C36.1695 51.3373 36.4895 51.262 36.8659 51.262C37.2047 51.262 37.5624 51.3749 37.9388 51.6008C38.3152 51.8643 38.5035 52.2219 38.5035 52.6736C38.5035 52.9371 38.4282 53.2007 38.2776 53.4642L37.8823 54.537C38.0329 54.3865 38.2211 54.2359 38.447 54.0853C38.6352 53.9724 38.8611 53.8783 39.1246 53.803C39.3505 53.7277 39.5763 53.6147 39.8022 53.4642C39.9904 53.3512 40.1786 53.2383 40.3669 53.1254C40.7433 52.8995 41.2327 52.7866 41.835 52.7866C42.2114 52.7866 42.6067 52.843 43.0208 52.956C43.4349 53.1065 43.7925 53.2571 44.0937 53.4077ZM45.223 25.0614L44.9971 25.6261L44.2066 26.9813C44.056 27.2448 43.9431 27.4895 43.8678 27.7154C43.7549 27.9789 43.6796 28.1859 43.6419 28.3365C43.5666 28.7129 43.3408 29.2211 42.9643 29.8611C42.5879 30.5387 42.1362 31.1975 41.6091 31.8374C41.3456 32.1386 41.1198 32.4397 40.9315 32.7409C40.7057 33.0797 40.4986 33.4185 40.3104 33.7573C39.8963 34.4349 39.5387 34.9619 39.2375 35.3384L38.7858 35.903C38.7105 35.9783 38.654 36.0536 38.6164 36.1289C38.5411 36.2042 38.4846 36.2795 38.447 36.3548L37.6 37.8794L37.1483 38.7264C37.073 38.8769 37.0165 38.9899 36.9789 39.0652C36.9412 39.1781 36.9036 39.2534 36.8659 39.291L35.6801 40.9286L34.8896 41.945C34.5132 42.4343 34.1367 42.9802 33.7603 43.5825L33.2521 44.4295C33.1768 44.6177 33.1015 44.8059 33.0262 44.9942C32.9133 45.1824 32.8003 45.3518 32.6874 45.5024L30.6546 42.2273C30.8052 41.9638 30.9558 41.6815 31.1063 41.3803C31.2193 41.1168 31.351 40.8533 31.5016 40.5898L32.2357 39.2346C32.4239 38.8581 32.6121 38.5005 32.8003 38.1617C32.9886 37.8605 33.1768 37.5594 33.365 37.2582L34.8896 35.056C35.0402 34.8678 35.1531 34.6984 35.2284 34.5478C35.3037 34.3973 35.379 34.2843 35.4543 34.209C35.4919 34.1714 35.5484 34.0585 35.6237 33.8702C35.699 33.7197 35.8119 33.5126 35.9625 33.2491L36.9224 31.5551C37.2988 30.9151 37.6 30.3693 37.8259 29.9176C38.0517 29.4658 38.24 29.1082 38.3905 28.8447C38.5411 28.5812 38.7293 28.2612 38.9552 27.8848C39.1434 27.546 39.3693 27.1131 39.6328 26.586L40.4798 24.9485L41.4962 23.198C41.8726 22.4828 42.2867 21.7299 42.7385 20.9394C43.1526 20.1865 43.6043 19.3771 44.0937 18.5113C44.0937 19.1513 44.1313 19.6971 44.2066 20.1488C44.2819 20.6006 44.3572 20.977 44.4325 21.2782C44.5078 21.5793 44.583 21.824 44.6583 22.0122C44.7336 22.2005 44.7713 22.3322 44.7713 22.4075L44.9971 23.5368C45.0348 23.8003 45.0724 24.045 45.1101 24.2709C45.1101 24.5344 45.1477 24.7979 45.223 25.0614ZM52.3378 29.6917C52.2625 29.8423 52.1872 29.974 52.1119 30.087C52.0366 30.2375 51.9802 30.3693 51.9425 30.4822L51.4908 31.2163L50.5873 32.5715C50.0603 33.362 49.6462 34.1149 49.3451 34.8302C49.2321 35.1313 48.9874 35.6207 48.611 36.2983C48.1969 37.0135 47.6322 37.917 46.917 39.0087L44.4325 42.9049C44.3572 43.0555 44.2819 43.2061 44.2066 43.3566C44.0937 43.5072 43.9807 43.6954 43.8678 43.9213L42.3432 46.8011C42.2303 47.027 42.1173 47.2152 42.0044 47.3658C41.8915 47.554 41.7974 47.7234 41.7221 47.874L41.1574 48.7774C41.0445 48.9657 40.8562 49.2668 40.5927 49.6809C40.2916 50.1326 40.0657 50.4714 39.9151 50.6973C39.501 50.622 39.1246 50.5279 38.7858 50.415C38.4094 50.3397 38.0329 50.2456 37.6565 50.1326C36.9789 49.8691 36.5836 49.6809 36.4707 49.568L35.3978 48.5516L34.7767 47.9869C34.5132 47.7234 34.3061 47.5352 34.1555 47.4222L34.5508 46.7446C34.5884 46.707 34.6261 46.6505 34.6637 46.5752C34.7014 46.5376 34.7202 46.4811 34.7202 46.4058C34.7202 46.3305 34.8143 46.1423 35.0025 45.8412L35.5672 44.8812L36.1883 43.8648C37.0165 42.5473 37.6376 41.4368 38.0517 40.5333C38.4658 39.6298 38.7482 39.1028 38.8987 38.9522L39.5763 38.2182C39.7646 38.0299 39.934 37.8229 40.0845 37.597C40.2351 37.4088 40.4233 37.0888 40.6492 36.6371L41.6656 34.5478L42.0609 33.7573C42.0985 33.6067 42.2491 33.362 42.5126 33.0232C42.7385 32.7221 43.002 32.4021 43.3031 32.0633L44.0937 31.1598C44.583 30.6328 44.903 30.1246 45.0536 29.6352C45.1665 29.4094 45.2983 29.1835 45.4489 28.9576C45.5618 28.7318 45.6747 28.5059 45.7877 28.28L46.1829 27.546C46.2959 27.3954 46.4088 27.226 46.5217 27.0378C46.597 26.8872 46.6911 26.7178 46.8041 26.5296L47.3123 26.7554C47.3499 26.7931 47.4064 26.8119 47.4817 26.8119C47.557 26.8495 47.6322 26.8872 47.7075 26.9248L48.0463 27.0942C48.1969 27.1319 48.3851 27.3013 48.611 27.6024C48.8745 27.9412 49.251 28.2236 49.7403 28.4494L51.3779 29.24C51.5284 29.3153 51.6978 29.3905 51.8861 29.4658C52.0366 29.5411 52.1872 29.6164 52.3378 29.6917ZM60.1302 29.127C60.0173 29.3153 59.9043 29.5035 59.7914 29.6917C59.6785 29.9176 59.5467 30.1623 59.3961 30.4258C59.2832 30.6516 59.1703 30.8587 59.0573 31.0469C58.9444 31.2351 58.8691 31.3857 58.8315 31.4986L58.4362 32.2892C58.2856 32.5527 58.0221 32.9479 57.6457 33.475C57.2692 34.0396 56.7798 34.7361 56.1775 35.5642C55.5376 36.3924 54.9729 37.1265 54.4835 37.7664C53.9942 38.444 53.5801 39.0463 53.2413 39.5734L52.2249 41.2109C52.0366 41.4744 51.8484 41.7379 51.6602 42.0014C51.472 42.3026 51.3026 42.5849 51.152 42.8484C50.9638 43.1496 50.8132 43.3943 50.7003 43.5825C50.5497 43.8084 50.4368 43.9589 50.3615 44.0342L49.9662 44.7118C49.9286 44.7871 49.8909 44.8812 49.8533 44.9942C49.778 45.1071 49.7027 45.22 49.6274 45.333C49.5521 45.4459 49.458 45.5777 49.3451 45.7282C49.2321 45.8788 49.138 46.0294 49.0627 46.18L48.4981 47.1964C48.3475 47.3469 48.0652 47.8175 47.6511 48.608C47.1993 49.4362 46.4276 50.5467 45.3359 51.9396L41.9479 51.262L42.3432 50.4714C42.3808 50.3961 42.4373 50.302 42.5126 50.1891C42.5502 50.0762 42.6067 49.9632 42.682 49.8503L42.9643 49.2292C43.002 49.0786 43.1526 48.8151 43.4161 48.4386L44.8277 46.0106C44.9407 45.8223 45.0536 45.6341 45.1665 45.4459C45.2418 45.2953 45.3171 45.1259 45.3924 44.9377C45.5053 44.7495 45.6371 44.5236 45.7877 44.2601C45.9382 43.9966 46.1641 43.7143 46.4653 43.4131L47.0864 42.679C47.2746 42.4155 47.4064 42.2273 47.4817 42.1144L48.1028 40.8721C48.2534 40.5333 48.3663 40.251 48.4416 40.0251C48.4792 39.7992 48.5169 39.611 48.5545 39.4604C48.6298 39.1216 48.9122 38.7075 49.4015 38.2182L49.9662 37.597C50.4179 37.1453 50.7379 36.5618 50.9261 35.8466C51.0767 35.169 51.3779 34.6043 51.8296 34.1526C52.2813 33.7008 52.6578 33.1173 52.9589 32.4021C53.3354 31.6116 53.8812 30.821 54.5965 30.0305C54.7847 29.9929 54.9917 29.9552 55.2176 29.9176C55.4058 29.8799 55.594 29.8235 55.7823 29.7482C55.9328 29.7105 56.1022 29.6729 56.2905 29.6352C56.441 29.5976 56.5916 29.5599 56.7422 29.5223L57.4198 29.3529C57.5704 29.3153 57.7962 29.2776 58.0974 29.24C58.3986 29.24 58.6997 29.2211 59.0009 29.1835L60.1302 29.127ZM61.1466 26.7554C61.0713 26.7554 60.9207 26.7931 60.6949 26.8684C60.469 26.9437 60.3184 27.0001 60.2431 27.0378L59.6785 27.3201C59.415 27.433 58.9632 27.5271 58.3233 27.6024C57.6457 27.7154 57.0057 27.7907 56.4034 27.8283L55.6129 27.8848C55.2741 27.9601 54.9353 28.0165 54.5965 28.0542C54.2577 28.1295 54.0694 28.1859 54.0318 28.2236C53.9565 28.1483 53.8624 28.0918 53.7495 28.0542C53.6365 28.0165 53.5236 27.9601 53.4107 27.8848L52.9589 27.6589C52.8836 27.6213 52.8084 27.5836 52.7331 27.546C52.6578 27.5083 52.6013 27.4707 52.5637 27.433L51.4908 26.6425C51.1144 26.379 50.7944 26.1531 50.5309 25.9649C50.2297 25.7767 49.9662 25.6449 49.7403 25.5696C49.4768 25.4943 49.251 25.4002 49.0627 25.2873C48.8745 25.1744 48.7239 25.0803 48.611 25.005L48.1028 24.7226L47.4817 24.4403C47.4064 24.4027 47.3123 24.365 47.1993 24.3274C47.0864 24.2897 46.9546 24.2333 46.8041 24.158L46.4653 21.6734L46.2959 20.7135L46.07 19.076C46.07 19.0383 46.0324 18.7183 45.9571 18.116C45.8441 17.5514 45.75 17.1185 45.6747 16.8173C45.9382 16.7797 46.2206 16.7232 46.5217 16.6479C46.7852 16.6103 47.0299 16.5726 47.2558 16.535L48.4981 16.3091C48.8369 16.2715 49.1004 16.215 49.2886 16.1397C49.3639 16.1021 49.5898 16.0456 49.9662 15.9703L50.9261 15.688L52.1119 15.4621L53.1283 15.9138C53.3918 16.0644 53.6365 16.1773 53.8624 16.2526C54.0506 16.3656 54.22 16.4597 54.3706 16.535C54.4835 16.6103 54.6153 16.6855 54.7659 16.7608C54.8788 16.8738 55.0294 16.9867 55.2176 17.0996L56.6857 17.9466C56.7987 17.9843 57.0057 18.1349 57.3069 18.3984C57.4574 18.4737 57.6457 18.5678 57.8715 18.6807C58.0974 18.8313 58.3609 18.9819 58.6621 19.1324L59.7914 19.6406C60.0173 20.4312 60.2431 21.4287 60.469 22.6334C60.6572 23.8756 60.8078 24.8167 60.9207 25.4567L61.1466 26.7554ZM56.7422 22.9157C56.7422 22.0875 56.4787 21.3346 55.9517 20.657C55.387 19.9794 54.6906 19.4336 53.8624 19.0195C53.0342 18.6431 52.2437 18.4548 51.4908 18.4548C50.8508 18.4548 50.3238 18.6431 49.9097 19.0195C49.458 19.4336 49.2321 19.8853 49.2321 20.3747C49.2321 21.0899 49.5898 21.7675 50.305 22.4075C50.9826 23.0851 51.7731 23.6309 52.6766 24.045C53.5801 24.4968 54.3518 24.7226 54.9917 24.7226C56.1587 24.7226 56.7422 24.1203 56.7422 22.9157Z" fill="#C97D00"/>
</svg>
