<svg width="79" height="13" viewBox="0 0 79 13" fill="none" xmlns="http://www.w3.org/2000/svg">
<path d="M7.39842 0.599626L8.9564 5.00318L9.00356 5.13647H9.14495H14.1368L10.1134 7.82101L9.98391 7.90738L10.0358 8.05408L11.5818 12.4238L7.50943 9.70657L7.39842 9.63251L7.28742 9.70657L3.215 12.4238L4.76102 8.05408L4.81293 7.90738L4.68348 7.82101L0.660088 5.13647H5.65189H5.79328L5.84044 5.00318L7.39842 0.599626Z" fill="#FFE920" stroke="black" stroke-width="0.4"/>
<path d="M23.3984 0.599626L24.9564 5.00318L25.0036 5.13647H25.145H30.1368L26.1134 7.82101L25.9839 7.90738L26.0358 8.05408L27.5818 12.4238L23.5094 9.70657L23.3984 9.63251L23.2874 9.70657L19.215 12.4238L20.761 8.05408L20.8129 7.90738L20.6835 7.82101L16.6601 5.13647H21.6519H21.7933L21.8404 5.00318L23.3984 0.599626Z" fill="white" stroke="black" stroke-width="0.4"/>
<path d="M39.3984 0.599626L40.9564 5.00318L41.0036 5.13647H41.145H46.1368L42.1134 7.82101L41.9839 7.90738L42.0358 8.05408L43.5818 12.4238L39.5094 9.70657L39.3984 9.63251L39.2874 9.70657L35.215 12.4238L36.761 8.05408L36.8129 7.90738L36.6835 7.82101L32.6601 5.13647H37.6519H37.7933L37.8404 5.00318L39.3984 0.599626Z" fill="white" stroke="black" stroke-width="0.4"/>
<path d="M55.3984 0.599626L56.9564 5.00318L57.0036 5.13647H57.145H62.1368L58.1134 7.82101L57.9839 7.90738L58.0358 8.05408L59.5818 12.4238L55.5094 9.70657L55.3984 9.63251L55.2874 9.70657L51.215 12.4238L52.761 8.05408L52.8129 7.90738L52.6835 7.82101L48.6601 5.13647H53.6519H53.7933L53.8404 5.00318L55.3984 0.599626Z" fill="white" stroke="black" stroke-width="0.4"/>
<path d="M71.3984 0.599626L72.9564 5.00318L73.0036 5.13647H73.145H78.1368L74.1134 7.82101L73.9839 7.90738L74.0358 8.05408L75.5818 12.4238L71.5094 9.70657L71.3984 9.63251L71.2874 9.70657L67.215 12.4238L68.761 8.05408L68.8129 7.90738L68.6835 7.82101L64.6601 5.13647H69.6519H69.7933L69.8404 5.00318L71.3984 0.599626Z" fill="white" stroke="black" stroke-width="0.4"/>
</svg>
